<svg xmlns="http://www.w3.org/2000/svg" version="1.1" xmlns:xlink="http://www.w3.org/1999/xlink" width="512" height="512" x="0" y="0" viewBox="0 0 24 24" style="enable-background:new 0 0 512 512" xml:space="preserve" class=""><g><g fill="#000"><path d="M9.6 12.985a1 1 0 0 0 1.415 1.415zm6.26-3.432a1 1 0 0 0-1.413-1.414zM11.016 14.4l4.846-4.846-1.414-1.414L9.6 12.985z" fill="#4f46e5" opacity="1" data-original="#000000"></path><path d="m13.73 20.767-.894.448zm1.85-.153-.955-.294zM9.933 13.62l-.447.895zm.447.447.894-.447zM3.386 8.42l.294.956zm-.153 1.85-.448.894zm15.962-6.715.294.956zm1.25 1.25.956.294zM18.9 2.6 3.09 7.464l.589 1.912L19.489 4.51zM2.785 11.164l6.7 3.35.895-1.788-6.7-3.35zm6.7 3.35 3.35 6.7 1.79-.894-3.35-6.7zm7.051 6.395L21.4 5.098l-1.911-.588-4.864 15.81zm-3.7.306c.807 1.614 3.17 1.418 3.7-.306l-1.911-.589zm-3.35-6.7 1.789-.895a2 2 0 0 0-.895-.894zM3.092 7.463c-1.725.53-1.92 2.893-.307 3.7l.895-1.788zm16.397-2.953L21.4 5.1c.472-1.534-.966-2.972-2.5-2.5z" fill="#4f46e5" opacity="1" data-original="#000000"></path></g></g></svg>