<?xml version="1.0" encoding="UTF-8"?>
<svg id="Layer_1" data-name="Layer 1" xmlns="http://www.w3.org/2000/svg" version="1.1" viewBox="0 0 593.2 592.1">
  <defs>
    <style>
      .cls-1 {
        fill: #fefbfb;
      }

      .cls-1, .cls-2, .cls-3, .cls-4, .cls-5, .cls-6, .cls-7 {
        stroke-width: 0px;
      }

      .cls-2 {
        fill: #fe2842;
      }

      .cls-3 {
        fill: #fe2942;
      }

      .cls-4 {
        fill: #fefbfc;
      }

      .cls-5 {
        fill: #fef9fa;
      }

      .cls-6 {
        fill: #fefefe;
      }

      .cls-7 {
        fill: #fef9f9;
      }
    </style>
  </defs>
  <path class="cls-6" d="M786.7,786H-193.3V-194c326.7,0,653.3,0,980,0v980ZM296.7,589.2c162.2,0,293.8-131.3,293.9-293.2C590.8,133.4,459.3,1.9,296.7,1.9,134.2,1.9,2.8,133.2,2.8,295.5c0,162.2,131.6,293.7,294,293.6Z"/>
  <path class="cls-3" d="M296.7,589.2c-162.4,0-294-131.4-294-293.6C2.8,133.2,134.2,1.9,296.7,1.9c162.6,0,294.1,131.6,294,294.1-.1,161.9-131.8,293.2-293.9,293.2ZM497.9,281.7c0-3.8.1-7,0-10.1-.3-6.8-.3-13.7-1.3-20.4-2.7-17.8-15.2-28.9-32.5-29.4-4.5-.1-9,.3-13.5.4-1.6,0-3.2,0-4.9,0-.2-4-.4-7.6-.5-11h-31.8v11.3h-20.3v32h20v27.3h-31.4v32.1h31.8v66.1h32.2v-66.3c15.5,0,30.3,0,45.1,0,4.6,0,8.4,2.4,9.5,6.8,1.7,6.3,3.4,12.9,3.5,19.4.3,11.3-4.5,15.5-15.9,15.7-4.8,0-9.6,0-15.5,0,2.3,6.5,4.2,12.8,6.8,18.9,1.6,3.7,4.7,6.1,9,6,8-.2,16,0,24-.8,13.3-1.3,21.7-8.8,22.2-22,.7-16.9.6-34-.9-50.8-1.5-15.8-13.2-24.8-29.3-25-1.8,0-3.6,0-6.1,0ZM371.6,254.3v-31.6h-70.2v31.9h17.6v96.8c-8.6,0-16.7,0-24.9,0-1.5,0-3.8.6-4.2,1.6-4,8.7-7.7,17.6-11.6,26.8h104.8v-29.6h-29.1v-96h17.5ZM97,355.1c2.2,6.4,3.9,12,6,17.6,2.4,6.3,7.5,9.1,14,9.5,16.4,1.1,31.3-10.6,32.7-26.8,1-11.2.1-22.6.3-33.9.4-31.1,1.3-62.2,1.4-93.3,0-14.5-.9-17.4-18.1-18.4-13.1-.7-16.4,2.7-16.3,15.8,0,10.6.8,21.3.9,31.9.4,26.4.7,52.9,1,79.3,0,2.7,0,5.3-.3,8-.9,6.5-3.9,9.5-10.4,10.1-3.3.3-6.6,0-11.3,0ZM278.1,211.1c-4.6-.7-8.6-1.2-12.5-1.8-15.6-2.1-21.3,1.5-27.1,16.1-3.6,9.1-7.8,18-11.6,27-2.1,5-4.4,10.1-5.7,15.4-2.5,10.2,2.3,16.1,12.8,16.5,3.1.1,6.2,0,10.1,0-1.7,4.8-3,9-4.7,13.1-3,7-6.4,13.9-9.4,21-4.3,10.2-.8,16.3,10.2,18.3,1.8.3,3.6.6,5.5.6,8.5-.2,17-.5,25.5-.8,3.9-.1,6.8-2.1,8.3-5.5,2.8-6.2,5.3-12.5,8.2-19.4-7.4-.9-13.8-1.7-20.9-2.6,7.7-18.5,15.1-36.2,22.7-54.7h-27.4c5.4-14.7,10.5-28.7,15.9-43.3ZM170.6,254.7c.2,4.4.2,8.3.6,12.1,2.1,19.4,4.2,38.7,6.6,58,1.6,12.8,5,25.1,11.8,36.3.8,1.3,2.7,2.8,4,2.8,1.2,0,2.9-1.8,3.5-3.2,3.9-9.4,7.7-18.8,11.4-28.3.7-1.9.9-4.2.7-6.3-1.1-13.1-2.3-26.2-3.5-39.3-1-10.7-2-21.4-3-32.2h-32.1ZM65.7,254.6c-.3,1.4-.6,2.7-.7,4-1.7,18.4-2.9,36.8-5.2,55.1-1.4,11.3-.2,21.6,4.6,31.9,3,6.3,5,13.1,7.9,20.7,4.7-8.2,9-15.3,12.8-22.7,1.7-3.3,3-7,3.4-10.7,2.1-17,4-34,5.9-51,1-9,1.9-18,2.9-27.3h-31.6ZM273.6,350.4c-16.4-.3-31.9-.7-47.4-.9-1,0-2.6,1-2.9,1.9-3.8,9.3-7.5,18.7-11.5,28.8,16.6,0,32.5,0,48.4,0,.9,0,2.2-1,2.5-1.8,3.6-8.9,7-17.9,10.8-27.9ZM502.8,255.4c7.7-1,15-1.2,21.7-3.1,9.3-2.7,13-14.2,8-22-3.7-5.7-11.2-8.9-17.8-7.7-5.9,1.1-10.9,6.2-11.7,13.3-.7,5.9-.1,11.9-.1,19.4Z"/>
  <path class="cls-4" d="M497.9,281.7c2.5,0,4.3,0,6.1,0,16,.2,27.8,9.2,29.3,25,1.6,16.8,1.7,33.9.9,50.8-.6,13.2-9,20.7-22.2,22-7.9.8-16,.6-24,.8-4.4.1-7.5-2.3-9-6-2.5-6-4.5-12.3-6.8-18.9,6,0,10.8,0,15.5,0,11.4-.2,16.1-4.4,15.9-15.7-.1-6.5-1.8-13.1-3.5-19.4-1.2-4.3-4.9-6.7-9.5-6.8-14.8-.1-29.6,0-45.1,0v66.3h-32.2v-66.1h-31.8v-32.1h31.4v-27.3h-20v-32h20.3v-11.3h31.8c.2,3.4.3,7,.5,11,1.7,0,3.3,0,4.9,0,4.5-.1,9-.5,13.5-.4,17.3.5,29.8,11.6,32.5,29.4,1,6.7,1,13.6,1.3,20.4.2,3.1,0,6.3,0,10.1ZM445.6,281.4h19.8v-26.7h-19.8v26.7Z"/>
  <path class="cls-4" d="M371.6,254.3h-17.5v96h29.1v29.6h-104.8c3.9-9.2,7.6-18.1,11.6-26.8.5-1,2.8-1.6,4.2-1.6,8.1-.1,16.3,0,24.9,0v-96.8h-17.6v-31.9h70.2v31.6Z"/>
  <path class="cls-1" d="M97,355.1c4.7,0,8,.3,11.3,0,6.5-.7,9.5-3.6,10.4-10.1.4-2.6.4-5.3.3-8-.3-26.4-.6-52.9-1-79.3-.2-10.6-.8-21.3-.9-31.9-.1-13.2,3.2-16.5,16.3-15.8,17.2.9,18.1,3.8,18.1,18.4-.1,31.1-.9,62.2-1.4,93.3-.2,11.3.7,22.7-.3,33.9-1.4,16.2-16.3,27.9-32.7,26.8-6.5-.5-11.6-3.2-14-9.5-2.1-5.5-3.9-11.2-6-17.6Z"/>
  <path class="cls-4" d="M278.1,211.1c-5.4,14.7-10.5,28.7-15.9,43.3h27.4c-7.7,18.5-15.1,36.2-22.7,54.7,7,.9,13.5,1.7,20.9,2.6-2.9,6.9-5.4,13.2-8.2,19.4-1.6,3.4-4.5,5.3-8.3,5.5-8.5.3-17,.6-25.5.8-1.8,0-3.7-.2-5.5-.6-11-2.1-14.5-8.1-10.2-18.3,2.9-7.1,6.4-13.9,9.4-21,1.7-4.1,3-8.4,4.7-13.1-3.9,0-7,.1-10.1,0-10.5-.4-15.3-6.3-12.8-16.5,1.3-5.3,3.6-10.3,5.7-15.4,3.8-9,8-17.9,11.6-27,5.8-14.7,11.5-18.3,27.1-16.1,3.9.5,7.9,1.1,12.5,1.8Z"/>
  <path class="cls-1" d="M170.6,254.7h32.1c1,10.8,2,21.5,3,32.2,1.2,13.1,2.4,26.2,3.5,39.3.2,2.1,0,4.4-.7,6.3-3.6,9.5-7.4,18.9-11.4,28.3-.6,1.4-2.3,3.2-3.5,3.2-1.3,0-3.2-1.5-4-2.8-6.7-11.2-10.2-23.5-11.8-36.3-2.4-19.3-4.5-38.7-6.6-58-.4-3.8-.4-7.6-.6-12.1Z"/>
  <path class="cls-1" d="M65.7,254.6h31.6c-1,9.2-1.9,18.3-2.9,27.3-1.9,17-3.7,34-5.9,51-.5,3.7-1.7,7.4-3.4,10.7-3.8,7.4-8.1,14.4-12.8,22.7-2.9-7.6-4.9-14.3-7.9-20.7-4.8-10.3-6-20.6-4.6-31.9,2.3-18.3,3.5-36.7,5.2-55.1.1-1.3.4-2.6.7-4Z"/>
  <path class="cls-7" d="M273.6,350.4c-3.9,10-7.3,19-10.8,27.9-.3.8-1.6,1.8-2.5,1.8-15.9.1-31.8,0-48.4,0,4-10.1,7.6-19.5,11.5-28.8.4-.9,1.9-1.9,2.9-1.9,15.5.2,30.9.6,47.4.9Z"/>
  <path class="cls-5" d="M502.8,255.4c0-7.5-.5-13.5.1-19.4.8-7.2,5.8-12.2,11.7-13.3,6.6-1.2,14.1,2,17.8,7.7,5.1,7.8,1.3,19.3-8,22-6.7,1.9-13.9,2.1-21.7,3.1Z"/>
  <path class="cls-2" d="M445.6,281.4v-26.7h19.8v26.7h-19.8Z"/>
</svg>