<svg clip-rule="evenodd" fill-rule="evenodd" height="512" image-rendering="optimizeQuality" shape-rendering="geometricPrecision" text-rendering="geometricPrecision" viewBox="0 0 512 512" width="512" xmlns="http://www.w3.org/2000/svg" xmlns:xodm="http://www.corel.com/coreldraw/odm/2003"><g id="Layer_x0020_1" fill-rule="nonzero"><path d="m251.29 139.11c-11.72.22-21.62 10.2-21.41 21.58.21 11.81 9.92 21.04 21.97 20.9 12.09-.15 21.25-9.48 21.13-21.53-.1-11.83-9.77-21.17-21.69-20.95zm150.41 136.23c-9.29-.06-17.18 7.54-17.56 16.93-.4 10.04 7.4 18.28 17.33 18.3 9.61.03 17.2-7.23 17.55-16.79.37-10.06-7.43-18.37-17.32-18.44zm-92.53 18.41c.38-10.01-7.67-18.41-17.7-18.45-9.93-.04-18.24 8.47-17.89 18.33.32 9.43 8.26 17.05 17.76 17.06 9.49.01 17.46-7.4 17.83-16.94zm109.84 164.41c-14.63-1.53-30.01 6.91-45.32 8.48-46.63 4.77-88.4-8.23-122.84-40.08-65.51-60.59-56.15-153.5 19.64-203.15 67.36-44.13 166.15-29.42 213.64 31.81 41.45 53.43 36.57 124.36-14.02 169.25-23.61 20.95-13.71 27.63-7.58 51.97-13.59-6.05-28.67-16.73-43.52-18.28zm-302.83-319.04c-11.95-.35-21.79 8.78-22.13 20.56-.36 11.94 8.77 21.51 20.81 21.81 11.94.3 21.95-8.84 22.38-20.47.45-11.59-9.65-21.57-21.06-21.9zm72.21 213.69c-18.56-2.3-35.47-4.83-52.48-6.26-5.87-.5-12.84.2-17.81 3.01-16.51 9.32-32.34 19.84-51.1 31.57 3.44-15.58 5.67-29.21 9.61-42.32 2.9-9.64 1.56-15.01-7.32-21.29-115.11-81.26-78.8-230.75 49.96-272.81 100.33-32.77 226.23 24.88 236.58 135.64-96.71 5.05-176.11 70.07-167.44 172.46z" fill="#3caf41"/><path d="m-2014.21 1705.12c79.75 0 144.4 65.1 144.4 145.39 0 80.3-64.65 145.39-144.4 145.39s-144.4-65.09-144.4-145.39c0-80.29 64.65-145.39 144.4-145.39zm230.6 8.52c39.88 0 72.2 61.27 72.2 136.87.13 18.22-7.61 136.88-72.19 136.88-39.88 0-72.21-61.3-72.21-136.88s32.33-136.87 72.2-136.87zm111.61 14.25c14.02 0 25.39 54.9 25.39 122.62 0 67.7-11.37 122.62-25.39 122.62-14.03 0-25.39-54.9-25.39-122.62s11.36-122.62 25.39-122.62z" fill="#1e1b1e"/><path d="m-1229.55 1594.85c-28.14 0-51.13 22.99-51.13 51.13s22.99 51.13 51.13 51.13h51.14v-51.13c0-28.14-22.65-51.13-51.14-51.13zm-187.02 323.95c0 28.14 22.99 51.13 51.13 51.13s51.13-22.99 51.13-51.13v-51.13h-51.13c-28.48 0-51.13 22.99-51.13 51.13zm136.23 0v136.58c0 28.14 23 51.13 51.14 51.13s51.13-22.99 51.13-51.13v-136.58c0-28.14-22.99-51.13-51.13-51.13-28.49 0-51.14 22.99-51.14 51.13zm187.03 187.71c28.14 0 51.13-22.99 51.13-51.13s-22.99-51.13-51.13-51.13h-51.13v51.13c0 28.14 22.99 51.13 51.13 51.13zm136.24-136.58c28.14 0 51.13-22.99 51.13-51.13s-22.99-51.13-51.13-51.13h-136.24c-28.14 0-51.13 22.99-51.13 51.13s22.99 51.13 51.13 51.13zm51.13-187.71c0-28.14-22.99-51.13-51.13-51.13s-51.14 22.99-51.14 51.13v51.13h51.14c28.14.35 51.13-22.65 51.13-51.13zm-136.24 0v-136.58c0-28.14-22.99-51.13-51.13-51.13s-51.13 22.99-51.13 51.13v136.58c0 28.14 22.99 51.13 51.13 51.13 28.48.35 51.13-22.65 51.13-51.13zm-187.37-51.13h-135.89c-28.14 0-51.13 22.99-51.13 51.13s22.99 51.13 51.13 51.13h136.24c28.14 0 51.13-22.99 51.13-51.13-.34-28.14-22.99-51.13-51.48-51.13z" fill="#e01e5a"/></g></svg>